<svg xmlns="http://www.w3.org/2000/svg" width="38.3" height="34.931" viewBox="0 0 38.3 34.931">
  <g id="noun_messages_367824" transform="translate(-293.7 -178.705)">
    <path id="Tracé_82" data-name="Tracé 82" d="M27.154,16.426A1.626,1.626,0,1,1,25.528,14.8,1.633,1.633,0,0,1,27.154,16.426ZM20.136,14.8a1.626,1.626,0,1,0,1.626,1.626A1.659,1.659,0,0,0,20.136,14.8Zm10.784,0a1.626,1.626,0,1,0,1.626,1.626A1.633,1.633,0,0,0,30.921,14.8ZM40,10.122V22.612a4.163,4.163,0,0,1-3.291,4.044v3.687a1.766,1.766,0,0,1-.476,1.15,1.9,1.9,0,0,1-1.11.4,1.566,1.566,0,0,1-1.11-.476l-4.639-4.639H15.22A4.12,4.12,0,0,1,11.1,22.651V10.122A4.12,4.12,0,0,1,15.22,6H35.837A4.1,4.1,0,0,1,40,10.122Zm-2.894,0a1.278,1.278,0,0,0-1.269-1.269H15.22a1.278,1.278,0,0,0-1.269,1.269V22.612A1.278,1.278,0,0,0,15.22,23.88H30.564l3.251,3.251V23.88h2.062a1.278,1.278,0,0,0,1.269-1.269V10.122ZM4.991,35.7V39.3a1.618,1.618,0,0,0,1.546,1.626,1.532,1.532,0,0,0,1.07-.436l4.678-4.678H26.44a4.13,4.13,0,0,0,4.123-3.886L28.185,29.55H11.81a3.494,3.494,0,0,1-3.489-3.489V15h-2.5A4.12,4.12,0,0,0,1.7,19.123V31.612A4.173,4.173,0,0,0,4.991,35.7Z" transform="translate(292 172.706)" fill="#fff"/>
  </g>
</svg>
