<svg xmlns="http://www.w3.org/2000/svg" width="22.449" height="24.618" viewBox="0 0 22.449 24.618"><g transform="translate(-6.7 -2.5)"><path d="M54.405,2.915A1.592,1.592,0,0,0,53.317,2.5a1.657,1.657,0,0,0-1.218.544L46.812,9.108a.7.7,0,0,0,.052.985L46.087,11a2.688,2.688,0,0,0-3.472.7A4.9,4.9,0,0,0,41.5,13.85a3.479,3.479,0,0,1,.907-.1,3.631,3.631,0,0,1,2.41.881,4.146,4.146,0,0,1,1.011-.13,3.251,3.251,0,0,1,1.322.259,2.53,2.53,0,0,0-.078-2.851l.829-.855a.721.721,0,0,0,.985-.026l5.6-5.8A1.613,1.613,0,0,0,54.405,2.915Z" transform="translate(-25.782)"/><path d="M29.049,53.621a2.473,2.473,0,0,0-2.41-1.969,2.64,2.64,0,0,0-1.348.389,2.415,2.415,0,0,0-2.073-1.14,2.49,2.49,0,0,0-1.866.855,2.328,2.328,0,0,0-1.322-.389,2.472,2.472,0,0,0-2.462,2.2A2.484,2.484,0,0,0,15.6,55.254H30.811A2.353,2.353,0,0,0,29.049,53.621Z" transform="translate(-6.594 -35.858)"/><path d="M25.539,72.7H7.737a1.037,1.037,0,0,0,0,2.073h.544l.8,2.851a2.083,2.083,0,0,0,2,1.5H22.222a2.083,2.083,0,0,0,2-1.5l.8-2.851h.544A1.04,1.04,0,0,0,26.6,73.737,1.062,1.062,0,0,0,25.539,72.7Z" transform="translate(0 -52.008)"/></g></svg>