<svg id="noun_Delete_942024" xmlns="http://www.w3.org/2000/svg" width="22.858" height="22.865" viewBox="0 0 42.858 42.865">
  <path id="Tracé_140" data-name="Tracé 140" d="M35.327.52l7.01,7.01a1.811,1.811,0,0,1,0,2.542L30.953,21.456,42.3,32.8a1.8,1.8,0,0,1,0,2.534l-7.01,7.01a1.8,1.8,0,0,1-2.534,0L21.409,31,10.1,42.3a1.8,1.8,0,0,1-2.534,0l-7.01-7.01a1.8,1.8,0,0,1,0-2.534l11.3-11.3L.521,10.112a1.8,1.8,0,0,1,0-2.534L7.531.567a1.8,1.8,0,0,1,2.534,0L21.409,11.911,32.793.528A1.794,1.794,0,0,1,35.327.52Z" transform="translate(0 0)" fill="#5e0b00" fill-rule="evenodd"/>
</svg>
