<svg xmlns="http://www.w3.org/2000/svg" xmlns:xlink="http://www.w3.org/1999/xlink" width="17.303" height="17.351" viewBox="0 0 17.303 17.351">
  <defs>
    <linearGradient id="linear-gradient" x1="0.5" x2="0.5" y2="1" gradientUnits="objectBoundingBox">
      <stop offset="0" stop-color="#4f147b"/>
      <stop offset="1" stop-color="#704c8b"/>
    </linearGradient>
  </defs>
  <g id="noun_edit_1352940" transform="translate(-2.9 -3)">
    <path id="Tracé_138" data-name="Tracé 138" d="M17.784,19.555v5.8a1.631,1.631,0,0,1-1.627,1.627H4.527A1.631,1.631,0,0,1,2.9,25.357V13.727A1.631,1.631,0,0,1,4.527,12.1h5.8a.542.542,0,1,1,0,1.084h-5.8a.544.544,0,0,0-.542.542v11.63a.544.544,0,0,0,.542.542h11.63a.544.544,0,0,0,.542-.542v-5.8a.542.542,0,0,1,1.084,0Z" transform="translate(0 -6.633)" fill="url(#linear-gradient)"/>
    <path id="Tracé_139" data-name="Tracé 139" d="M36.848,3.7a2.488,2.488,0,0,0-3.47,0L32.294,4.789h0L31.1,6.009h0l-.163.163h0L27.414,9.7a.646.646,0,0,0-.163.3l-.569,3.253a.571.571,0,0,0,.163.488.535.535,0,0,0,.38.163h.081l3.253-.569a.646.646,0,0,0,.3-.163l3.524-3.524h0l.163-.163h0l1.193-1.193h0L36.821,7.2a2.439,2.439,0,0,0,.7-1.735A2.232,2.232,0,0,0,36.848,3.7Zm-6.615,8.567-2.332.407.407-2.332,3.036-3.036L33.27,9.235Zm4.338-4.338-.542.542L32.1,6.551l.542-.542.054-.054L34.625,7.88Zm1.518-1.545-.732.732L33.432,5.2l.7-.732a1.54,1.54,0,0,1,1-.38,1.231,1.231,0,0,1,.949.407,1.434,1.434,0,0,1,.407.949A1.272,1.272,0,0,1,36.089,6.389Z" transform="translate(-17.329)" fill="url(#linear-gradient)"/>
  </g>
</svg>
