<svg xmlns="http://www.w3.org/2000/svg" fill="#000000" width="38.593" height="38.278" viewBox="0 0 23.593 25.278">
  <g id="Groupe_42" data-name="Groupe 42" transform="translate(-84 -240.722)">
    <g id="filtredej" transform="translate(80 238.721)">
      <rect id="Rectangle_185" data-name="Rectangle 185" width="1" transform="translate(14 4.279)"/>
      <rect id="Rectangle_186" data-name="Rectangle 186" width="0.843" height="1.191" transform="translate(12.55 6.511) rotate(-45)"/>
      <rect id="Rectangle_187" data-name="Rectangle 187" width="1" height="1" transform="translate(11 7.279)"/>
      <path id="Tracé_143" data-name="Tracé 143" d="M27.542,24.127a.421.421,0,0,0-.37-.219h-2.96a2.078,2.078,0,0,0-.421-2.949,2.087,2.087,0,0,0,0-3.37,2.087,2.087,0,0,0,0-3.37,2.089,2.089,0,0,0,.262-3.145,1.261,1.261,0,0,0-.672-2.331H21.116L24.087,5.77a.421.421,0,0,0,0-.6L22.3,3.387a.421.421,0,0,0-.6,0l-1.49,1.489-1.49-1.489a.421.421,0,0,0-.6,0L16.341,5.175a.421.421,0,0,0,0,.6l2.971,2.971H14.119a4.2,4.2,0,0,0,.865-6.617.421.421,0,0,0-.6,0L9.026,7.486a.421.421,0,0,0,0,.6,4.191,4.191,0,0,0,.865.659H7.37a.421.421,0,0,0-.3.123L5.583,10.354A2.5,2.5,0,0,0,7.37,14.639h.01A2.078,2.078,0,0,0,7.8,17.588a2.087,2.087,0,0,0,0,3.37,2.078,2.078,0,0,0-.423,2.949H4.421a.421.421,0,0,0-.354.649l1.625,2.528a.421.421,0,0,0,.354.193h19.5a.421.421,0,0,0,.354-.193l1.625-2.528A.421.421,0,0,0,27.542,24.127ZM23.8,19.274a1.264,1.264,0,0,1-1.264,1.264H18.324V18.01h4.213A1.264,1.264,0,0,1,23.8,19.274Zm0-3.37a1.264,1.264,0,0,1-1.264,1.264H18.324V14.639h4.213A1.264,1.264,0,0,1,23.8,15.9ZM19.5,13.8H18.324V12.111a.421.421,0,0,1,.843,0v.843a1.256,1.256,0,0,0,.329.843Zm3.042,0H21.366a1.256,1.256,0,0,0,.329-.843V11.269h.843a1.264,1.264,0,1,1,0,2.528Zm-5.3-8.324,1.191-1.191,1.49,1.489a.421.421,0,0,0,.6,0L22,4.281l1.192,1.191L20.214,8.452ZM14.667,3.036a3.37,3.37,0,0,1-4.73,4.73Zm-7.718,9.5A2.1,2.1,0,0,0,7.37,13.8h0a1.652,1.652,0,0,1-1.191-.463,1.685,1.685,0,0,1,0-2.383L7.545,9.584H23.38a.421.421,0,0,1,0,.843H21.273a.421.421,0,0,0-.421.421v2.107a.421.421,0,1,1-.843,0v-.843a1.264,1.264,0,1,0-2.528,0V21.8a.421.421,0,1,1-.843,0V13.375a1.264,1.264,0,0,0-2.528,0v1.685a.421.421,0,0,1-.843,0V11.69a1.264,1.264,0,0,0-2.528,0v3.792a.421.421,0,1,1-.843,0V10.847a.421.421,0,0,0-.421-.421H9.056A2.109,2.109,0,0,0,6.949,12.533Zm8.847.843V13.8h-.843v-.421a.421.421,0,0,1,.843,0Zm-3.37-1.685V13.8h-.843V11.69a.421.421,0,1,1,.843,0Zm-3.37-.421V13.8a1.264,1.264,0,0,1,0-2.528ZM7.792,15.9a1.264,1.264,0,0,1,1.264-1.264v.843a1.264,1.264,0,1,0,2.528,0v-.843h.843v.421a1.264,1.264,0,0,0,2.528,0v-.421H15.8v2.528H9.056A1.264,1.264,0,0,1,7.792,15.9Zm0,3.37A1.264,1.264,0,0,1,9.056,18.01H15.8v2.528H9.056A1.264,1.264,0,0,1,7.792,19.274ZM9.056,21.38H15.8V21.8a1.264,1.264,0,1,0,2.528,0V21.38h4.213a1.264,1.264,0,1,1,0,2.528H9.056a1.264,1.264,0,0,1,0-2.528Zm16.262,5.056H6.275L5.193,24.75H26.4Z"/>
    </g>
    <rect id="Rectangle_188" data-name="Rectangle 188" width="2.5" height="5" transform="matrix(0.719, 0.695, -0.695, 0.719, 101.463, 242.379)"/>
    <rect id="Rectangle_189" data-name="Rectangle 189" width="2.5" height="4" transform="translate(96.905 244.219) rotate(-43)"/>
    <path id="Tracé_144" data-name="Tracé 144" d="M-4047.323,196.819l-4.388,4.3.241.722,1.461.217,1.965-.666,1.179-1.058v-1.343l.316-1.173Z" transform="translate(4142 45)" stroke="#000" stroke-width="1"/>
  </g>
</svg>
