<svg xmlns="http://www.w3.org/2000/svg" width="60.1" height="35.26" viewBox="0 0 60.1 35.26">
  <g id="noun_dinner_2121004" transform="translate(-19.9 -11.997)">
    <g id="Groupe_31" data-name="Groupe 31" transform="translate(19.9 11.997)">
      <path id="Tracé_108" data-name="Tracé 108" d="M21.914,33.972c.929,7.281,5.654,12.857,19.441,12.857a36.232,36.232,0,0,0,4.26-.232c.077-.077.077-.232.155-.31l7.9-13.477a62.6,62.6,0,0,1-12.315,1.007c-10.3,0-16.343-1.781-17.737-2.866,1.394-1.084,7.436-2.866,17.737-2.866a58.706,58.706,0,0,1,14.174,1.472l1.781-3.1C51.5,24.677,42.749,24.6,41.278,24.6c-2.169,0-21.378.155-21.378,6.274A3.93,3.93,0,0,0,21.914,33.972Z" transform="translate(-19.9 -14.838)"/>
      <path id="Tracé_109" data-name="Tracé 109" d="M93.573,19.822a1.352,1.352,0,0,0-.929-.31l-4.183.62,2.556-3.95a1.1,1.1,0,0,0-.232-1.472l-.155-.077a1.17,1.17,0,0,0-1.472-.077L85.518,17.5l.155-4.26a1.429,1.429,0,0,0-.387-.929,1.123,1.123,0,0,0-1.627.077c-.077.155-.232.232-.232.465L81.8,18.118c.077.077.232.155.31.232l5.809,5.189c.077.077.232.155.31.31l5.035-2.169A1.1,1.1,0,0,0,93.573,19.822Z" transform="translate(-33.855 -11.997)"/>
      <path id="Tracé_110" data-name="Tracé 110" d="M74.732,22.04a3.484,3.484,0,0,0-5.344.852l-.852,1.394,5.344,4.8a.842.842,0,0,1,.077,1.162l-.387.387a.842.842,0,0,1-1.162.077l-5.035-4.57L60.558,37.763l3.1,2.788a.842.842,0,0,1,.077,1.162l-.387.387a.842.842,0,0,1-1.162.077l-2.556-2.556-4.105,6.971a1.786,1.786,0,0,0,2.633,2.324l12.78-9.449-3.563-3.253a.842.842,0,0,1-.077-1.162l.387-.387a.842.842,0,0,1,1.162-.077L72.8,38.15l7.591-5.577a3.436,3.436,0,0,0,.232-5.344Z" transform="translate(-27.872 -14.06)"/>
    </g>
  </g>
</svg>
