<svg xmlns="http://www.w3.org/2000/svg" width="35.572" height="35.6" viewBox="0 0 20.572 25.6">
  <g id="noun_Cupcake_1932585" transform="translate(-183.857 8)">
    <g id="Groupe_29" data-name="Groupe 29" transform="translate(183.857 -8)">
      <path id="Tracé_94" data-name="Tracé 94" d="M38,21.754a1.909,1.909,0,0,0-1.5-.669H36.04a2.654,2.654,0,0,0,.346-.458,2.527,2.527,0,0,0-.945-3.52,2.654,2.654,0,0,0-.675-.263,2.221,2.221,0,0,0,.145-.2,2.137,2.137,0,0,0,.234-1.656,2.2,2.2,0,0,0-2.708-1.523l-.591.159c-2.527-1.069-1.907-3.027-1.879-3.11a.388.388,0,0,0-.453-.506c-.211.048-5.191,1.217-6.652,3.835a3.023,3.023,0,0,0-.307,2.276l-.095.025a2.2,2.2,0,0,0-1.58,2.675,2.131,2.131,0,0,0,.84,1.192l-.485.13a2.649,2.649,0,0,0-1.4.941h-.049a1.872,1.872,0,0,0-1.893,2.259l1.8,10.133A2.671,2.671,0,0,0,22.227,35.6H34.059a2.671,2.671,0,0,0,2.534-2.123l1.8-10.133A1.908,1.908,0,0,0,38,21.754Zm-.367,1.455-1.8,10.133a1.892,1.892,0,0,1-1.77,1.483H22.227a1.892,1.892,0,0,1-1.77-1.483l-1.8-10.133a1.1,1.1,0,0,1,1.13-1.348h1.064l1.471,8.609a.388.388,0,0,0,.382.322.394.394,0,0,0,.066-.006.387.387,0,0,0,.317-.448l-1.449-8.478H24.78l.533,8.567a.388.388,0,0,0,.387.364h.025a.388.388,0,0,0,.363-.411l-.53-8.519h2.2V30.4a.388.388,0,0,0,.776,0V21.861h2.2L30.2,30.38a.388.388,0,0,0,.363.411h.025a.388.388,0,0,0,.387-.364l.533-8.567h3.145l-1.04,6.088a.388.388,0,1,0,.764.13l1.063-6.218H36.5a1.1,1.1,0,0,1,1.13,1.348Z" transform="translate(-17.857 -10)" fill="#000000"/>
      <path id="Tracé_95" data-name="Tracé 95" d="M66.314,71.272a.389.389,0,0,0-.448.317L65.8,72a.388.388,0,1,0,.764.131l.07-.411A.387.387,0,0,0,66.314,71.272Z" transform="translate(-50.452 -51.661)" fill="#000000"/>
    </g>
  </g>
</svg>
