<svg xmlns="http://www.w3.org/2000/svg" width="50.1" height="50.353" viewBox="0 0 38.1 22.353">
  <g id="noun_dinner_2121004" transform="translate(-19.9 -11.997)">
    <g id="Groupe_31" data-name="Groupe 31" transform="translate(19.9 11.997)">
      <path id="Tracé_108" data-name="Tracé 108" d="M21.177,30.541c.589,4.616,3.584,8.151,12.325,8.151a22.97,22.97,0,0,0,2.7-.147c.049-.049.049-.147.1-.2L41.308,29.8a39.686,39.686,0,0,1-7.807.638c-6.531,0-10.361-1.129-11.244-1.817.884-.687,4.714-1.817,11.244-1.817a37.216,37.216,0,0,1,8.986.933l1.129-1.964A41.6,41.6,0,0,0,33.452,24.6c-1.375,0-13.552.1-13.552,3.977A2.492,2.492,0,0,0,21.177,30.541Z" transform="translate(-19.9 -18.412)" fill="currentColor"/>
      <path id="Tracé_109" data-name="Tracé 109" d="M89.264,16.958a.857.857,0,0,0-.589-.2l-2.652.393,1.62-2.5a.7.7,0,0,0-.147-.933l-.1-.049a.742.742,0,0,0-.933-.049l-2.308,1.866.1-2.7a.906.906,0,0,0-.246-.589.712.712,0,0,0-1.031.049c-.049.1-.147.147-.147.295L81.8,15.877c.049.049.147.1.2.147l3.683,3.29c.049.049.147.1.2.2l3.192-1.375A.7.7,0,0,0,89.264,16.958Z" transform="translate(-51.406 -11.997)" fill="currentColor"/>
      <path id="Tracé_110" data-name="Tracé 110" d="M67.6,21.713a2.208,2.208,0,0,0-3.388.54l-.54.884,3.388,3.044a.534.534,0,0,1,.049.737l-.246.246a.533.533,0,0,1-.737.049l-3.192-2.9L58.618,31.68l1.964,1.768a.533.533,0,0,1,.049.737l-.246.246a.534.534,0,0,1-.737.049l-1.62-1.62-2.6,4.419A1.132,1.132,0,0,0,57.1,38.751l8.1-5.99L62.939,30.7a.534.534,0,0,1-.049-.737l.246-.246a.533.533,0,0,1,.737-.049l2.5,2.259,4.812-3.535A2.178,2.178,0,0,0,71.336,25Z" transform="translate(-37.897 -16.653)" fill="currentColor"/>
    </g>
  </g>
</svg>
