<svg xmlns="http://www.w3.org/2000/svg" width="32.382" height="32.995" viewBox="0 0 25.382 25.995">
  <g id="Groupe_32" data-name="Groupe 32" transform="translate(-100.309 -240)">
    <g id="noun_Appetizer_2693742" transform="translate(88 229.66)">
      <path id="Tracé_113" data-name="Tracé 113" d="M25,18.544c-5.752,0-10.665,2.253-11.683,5.356a.161.161,0,0,0,.039.163,1.739,1.739,0,0,0,1.338.458H35.306a1.739,1.739,0,0,0,1.338-.458.161.161,0,0,0,.039-.163C35.665,20.8,30.752,18.544,25,18.544Z" fill="currentColor"/>
      <circle id="Ellipse_6" data-name="Ellipse 6" cx="0.957" cy="0.957" r="0.957" transform="translate(24.043 11.348)" fill="none"/>
      <path id="Tracé_114" data-name="Tracé 114" d="M35.772,32.752,25,32.853H15.241a.727.727,0,0,0-.584,1.159l.762,1.028a.727.727,0,0,0,.584.3H34.648a.721.721,0,0,0,.515-.213L36.292,34a.711.711,0,0,0,.156-.8A.738.738,0,0,0,35.772,32.752Z" fill="currentColor"/>
      <path id="Tracé_115" data-name="Tracé 115" d="M25.5,17.557V14.189a1.957,1.957,0,1,0-1,0v3.368c-5.956.134-11.017,2.625-12.134,6.031a1.158,1.158,0,0,0,.181,1.062,2.655,2.655,0,0,0,2.147.871H35.306a2.655,2.655,0,0,0,2.147-.871,1.158,1.158,0,0,0,.181-1.062C36.517,20.182,31.456,17.691,25.5,17.557ZM24.043,12.3a.957.957,0,1,1,.957.957.957.957,0,0,1-.957-.957Zm12.6,11.758a1.739,1.739,0,0,1-1.338.458H14.694a1.739,1.739,0,0,1-1.338-.458.161.161,0,0,1-.039-.163c1.018-3.1,5.931-5.356,11.683-5.356S35.665,20.8,36.683,23.9a.161.161,0,0,1-.039.163Z" fill="currentColor"/>
      <path id="Tracé_116" data-name="Tracé 116" d="M37.008,29.363H12.992a.5.5,0,0,0,0,1H37.008a.5.5,0,0,0,0-1Z" fill="currentColor"/>
      <path id="Tracé_117" data-name="Tracé 117" d="M35.763,31.752,25,31.853H15.241a1.726,1.726,0,0,0-1.388,2.753l.761,1.029a1.734,1.734,0,0,0,1.389.7H34.648a1.719,1.719,0,0,0,1.221-.505L37,34.7a1.726,1.726,0,0,0-1.236-2.947Zm.529,2.24-1.129,1.13a.721.721,0,0,1-.515.213H16a.727.727,0,0,1-.584-.3l-.762-1.028a.727.727,0,0,1,.584-1.159H25l10.772-.1a.738.738,0,0,1,.676.445A.711.711,0,0,1,36.292,33.992Z" fill="currentColor"/>
      <path id="Tracé_118" data-name="Tracé 118" d="M13.432,27.847a3.5,3.5,0,0,1,2.072.028l.587.233a4.327,4.327,0,0,0,2.99-.043l.117-.053a3.362,3.362,0,0,1,2.261,0,4.358,4.358,0,0,0,3.045.024l.184-.079a3.45,3.45,0,0,1,2.2,0l.448.19a4.377,4.377,0,0,0,2.992,0l.416-.18a3.422,3.422,0,0,1,2.208,0l.687.294a3.945,3.945,0,0,0,1.5.265,4.035,4.035,0,0,0,1.417-.234.5.5,0,1,0-.362-.932,3.451,3.451,0,0,1-2.16-.019l-.686-.294a4.347,4.347,0,0,0-3,0l-.415.18a3.449,3.449,0,0,1-2.206,0l-.449-.191a4.377,4.377,0,0,0-2.986,0l-.184.079a3.423,3.423,0,0,1-2.233-.013,4.286,4.286,0,0,0-3.095,0l-.117.053a3.42,3.42,0,0,1-2.2.023l-.588-.234a4.463,4.463,0,0,0-2.768-.045.5.5,0,0,0,.325.946Z" fill="currentColor"/>
    </g>
    <path id="Tracé_119" data-name="Tracé 119" d="M-2336.349,1562.352l-.671-1.724-1.613-1.368-1.751-1.241-2.118-.893-1.764-.492-2.046-.319h-4.117l-2.311.319-2.439.492-2.332,1.256-1.771,1.577-.926,1.469-.482.923.929.659h22.741Z" transform="translate(2461.401 -1308.428)" fill="currentColor"/>
  </g>
</svg>
