<svg xmlns="http://www.w3.org/2000/svg" width="40.52" height="40.6" viewBox="0 0 28.52 27.6">
  <g id="noun_restaurants_3151409" transform="translate(-31 -62)">
    <g id="Groupe_30" data-name="Groupe 30" transform="translate(31 62)">
      <path id="Tracé_96" data-name="Tracé 96" d="M2.67,21.257,2.111,20.7a.65.65,0,0,1,0-.92l1.65-1.65a.666.666,0,0,1,.92,0l.559.559c.26-.177.529-.343.807-.494l-.715-.716a1.609,1.609,0,0,0-2.221,0l-1.65,1.65a1.57,1.57,0,0,0,0,2.221l.716.716C2.327,21.786,2.493,21.518,2.67,21.257Z" transform="translate(-1 -9.658)" fill="#000000"/>
      <ellipse id="Ellipse_5" data-name="Ellipse 5" cx="0.5" rx="0.5" transform="translate(12 23)" fill="#000000"/>
      <path id="Tracé_97" data-name="Tracé 97" d="M33.818,33.955A.769.769,0,0,0,33.072,33H25.291l-6.067,6.067a5.029,5.029,0,0,0,1.382,2.587l.546.546h.814a1.364,1.364,0,0,1-.085-.46,1.382,1.382,0,0,1,1.38-1.38,1.4,1.4,0,0,1,.238.024,1.82,1.82,0,0,1,.234-.337c0-.058-.011-.116-.011-.175A4.113,4.113,0,0,1,28.914,35.9l4.135,1.128Z" transform="translate(-10.841 -18.28)" fill="#000000"/>
      <path id="Tracé_98" data-name="Tracé 98" d="M31.056,50.84a.92.92,0,1,0-.8-1.363,1.337,1.337,0,0,1,.307,1.211A.919.919,0,0,0,31.056,50.84Z" transform="translate(-16.795 -26.92)" fill="#000000"/>
      <path id="Tracé_99" data-name="Tracé 99" d="M33.357,46.52a6.19,6.19,0,0,0,3.781-1.3l2.17-1.688V42.271l-4.25-1.159a3.19,3.19,0,0,0-4.007,2.706A1.82,1.82,0,0,1,33.328,45.6a1.821,1.821,0,0,1-.256.92Z" transform="translate(-17.228 -22.6)" fill="#000000"/>
      <path id="Tracé_100" data-name="Tracé 100" d="M21.511,59.92H34.593l.23-.92H21.281Z" transform="translate(-11.952 -32.32)" fill="#000000"/>
      <path id="Tracé_101" data-name="Tracé 101" d="M11.74,19A8.74,8.74,0,0,0,6.183,34.486l12.3-12.3A8.784,8.784,0,0,0,11.74,19Z" transform="translate(-2.08 -10.72)" fill="#000000"/>
      <path id="Tracé_102" data-name="Tracé 102" d="M55.085,42.808l.28-.309a.919.919,0,1,0-1.535-.963,1.341,1.341,0,0,1-1.256.812L51,42.36v.92l1.57-.012a1.342,1.342,0,0,1,1.259.812.92.92,0,1,0,1.536-.963Z" transform="translate(-28 -22.583)" fill="#000000"/>
      <rect id="Rectangle_161" data-name="Rectangle 161" width="16" height="2" transform="translate(7 23)" fill="#000000"/>
      <path id="Tracé_103" data-name="Tracé 103" d="M37.515,13.925l.65-.65-.809-.809A1.491,1.491,0,0,1,38.412,9.92H40.14V9H38.412a2.411,2.411,0,0,0-1.705,4.117Z" transform="translate(-19.9 -5.32)" fill="#000000"/>
      <path id="Tracé_104" data-name="Tracé 104" d="M43,15.92a.92.92,0,0,1,0,1.84v.92A1.84,1.84,0,1,0,43,15Z" transform="translate(-23.68 -8.56)" fill="#000000"/>
      <path id="Tracé_105" data-name="Tracé 105" d="M51,9.129v.182h.92V9.129a2.633,2.633,0,0,1,1.175-2.2l-.51-.765A3.551,3.551,0,0,0,51,9.129Z" transform="translate(-28 -3.791)" fill="#000000"/>
      <path id="Tracé_106" data-name="Tracé 106" d="M48.054,5.005l.651-.65-.444-.444a1.166,1.166,0,0,1,.825-1.991H51.6a.921.921,0,0,1,.92.92h.92A1.842,1.842,0,0,0,51.6,1H49.087a2.086,2.086,0,0,0-1.476,3.561Z" transform="translate(-25.84 -1)" fill="#000000"/>
      <path id="Tracé_107" data-name="Tracé 107" d="M50.794,9.147l-.289-.1-.29.873.288.1a1.136,1.136,0,0,1,0,2.156l-3.049,1.016.291.872,1.673-.558a2.093,2.093,0,0,1,.022.252,2.052,2.052,0,0,1-1.753,2.021l-2.926.418A2.061,2.061,0,0,0,43,18.228h.92a1.137,1.137,0,0,1,.971-1.12l2.926-.418a2.976,2.976,0,0,0,2.542-2.932,2.942,2.942,0,0,0-.054-.548l.489-.163a2.056,2.056,0,0,0,0-3.9Z" transform="translate(-23.68 -5.347)" fill="#000000"/>
    </g>
  </g>
</svg>
