<svg xmlns="http://www.w3.org/2000/svg" width="42.657" height="33.129" viewBox="0 0 100.03 89.539">
  <g id="home" transform="translate(0.008 -5.241)">
    <path id="Tracé_88" data-name="Tracé 88" d="M100,53a2.24,2.24,0,0,1-2.53,2.53H88.36c-1.45,0-1.68.25-1.68,1.72V87.93A6.33,6.33,0,0,1,80,94.72H63c-2.29,0-2.91-.66-2.91-3V76a10,10,0,0,0-19.62-2.7A12.51,12.51,0,0,0,40,76.71c0,5,0,10,0,15.07,0,2.27-.69,3-3,3H20.27c-4.34,0-7-2.6-6.94-6.93V57.28c0-1.39-.26-1.65-1.64-1.65H3.13c-2.42,0-3.13-.67-3.13-3V46.56A5.06,5.06,0,0,1,1.92,42.3Q21,26.42,40.06,10.53l3.5-2.91a10,10,0,0,1,12.95,0L98.05,42.27a5,5,0,0,1,1.94,4Q100,49.69,100,53Z" fill="currentColor"/>
    <path id="Tracé_89" data-name="Tracé 89" d="M84,27l-7.8-6.48c-3-2.49-6-5-9-7.47a1.65,1.65,0,0,1-.73-1.55c.06-.68,0-1.37,0-2.06a3.17,3.17,0,0,1,3.19-3.38q5.58-.09,11.16,0a3.14,3.14,0,0,1,3.2,3C84.06,15,84,20.88,84,27Z" fill="currentColor"/>
  </g>
</svg>
