<svg xmlns="http://www.w3.org/2000/svg" width="753.745" height="259.625" viewBox="0 0 1753.745 1259.625">
  <g id="noun_recipe_2334479" transform="translate(-29.084 -15.9)">
    <g id="Groupe_41" data-name="Groupe 41" transform="translate(29.084 15.9)">
      <path id="Tracé_140" data-name="Tracé 140" d="M866.8,15.9h-731.4C89.233,15.9,48.6,52.839,48.6,100.86V669.723l16.623-3.694c12.929-1.847,25.858-3.694,36.939-3.694h14.776l40.633,3.694c46.174,3.694,86.807,27.7,114.511,62.8a171.71,171.71,0,0,1,33.245,125.593L255.459,1181.33c-3.694,25.857-12.929,48.021-29.551,68.337H909.282a40.994,40.994,0,0,0,40.633-40.633V100.86C951.762,54.686,912.976,15.9,866.8,15.9ZM731.974,424.078c0,12.929-9.235,22.163-22.163,22.163H290.551c-12.929,0-22.164-9.235-22.164-22.163V250.464c0-12.929,9.235-22.164,22.164-22.164H709.811c12.929,0,22.163,11.082,22.163,22.164Z" transform="translate(803.766 -15.9)"/>
      <path id="Tracé_141" data-name="Tracé 141" d="M160.375,147.272c-1.847-33.245,7.388-64.644,25.857-90.5-9.235-1.847-20.317-3.694-33.245-1.847l-33.245,3.694L23.7,208.221l46.174,297.36c9.235,53.562,59.1,92.348,112.664,88.654,5.541,0,11.082-1.847,16.623-3.694-9.235-16.623-12.929-35.092-14.776-55.409Z" transform="translate(368.774 652.461)"/>
      <path id="Tracé_142" data-name="Tracé 142" d="M136.407,57.894,95.774,54.2c-11.082,0-22.163,0-33.245,1.847,18.469,25.857,27.7,59.1,25.857,90.5L64.376,534.409A174.886,174.886,0,0,1,49.6,589.818c5.541,1.847,11.082,1.847,16.623,3.694,55.409,5.541,105.277-33.245,112.664-88.654l49.868-325.064C239.837,118.844,195.51,63.435,136.407,57.894Z" transform="translate(821.236 653.185)"/>
      <path id="Tracé_143" data-name="Tracé 143" d="M213.518,186.223h-27.7c3.694-46.174,14.776-97.889,24.01-121.9,9.235-22.164-60.95-24.01-66.49-1.847C137.792,80.946,130.4,138.2,126.711,186.223H115.629c-46.174,0-83.113,38.786-81.266,86.807l24.01,387.861c1.847,42.48,38.786,75.725,81.266,75.725H187.66c42.48,0,77.572-33.245,81.266-75.725l24.01-387.861C298.478,226.856,261.538,186.223,213.518,186.223Z" transform="translate(553.889 523.009)"/>
      <path id="Tracé_144" data-name="Tracé 144" d="M33.618,194.579l179.155,70.184c3.694,1.847,7.388,3.694,9.235,3.694l96.042-92.348c14.776-12.929,9.235-38.786-9.235-46.174-3.694-1.847-7.388-1.847-11.082-1.847s-9.235,1.847-12.929,3.694L192.456,181.65,218.314,68.986c3.694-12.929-3.694-27.7-16.623-33.245L198,33.894c-12.929-5.541-27.7,0-35.092,12.929l-59.1,99.736L70.557,48.67c-1.847-9.235-9.235-14.776-16.623-16.623C50.241,30.2,46.547,30.2,42.853,30.2c-14.776,0-29.551,12.929-27.7,29.551l9.235,132.981C28.077,192.732,31.771,192.732,33.618,194.579Z" transform="translate(216.64 233.915)"/>
      <path id="Tracé_145" data-name="Tracé 145" d="M173.289,393.075c5.541-14.776,24.01-22.163,38.786-16.623l121.9,49.868,118.205-181c29.551-44.327,11.082-105.277-40.633-125.593L234.239,47.694c-49.868-20.317-105.277,11.082-114.511,64.644l-5.541,33.245,162.532,62.8c14.776,5.541,22.164,24.01,16.623,38.786l-1.847,3.694c-3.694,12.929-16.623,18.469-27.7,18.469-3.694,0-7.388,0-11.082-1.847l-149.6-59.1L49.543,516.821l77.572,29.551a36.241,36.241,0,0,1,16.623,16.623,23.549,23.549,0,0,1,0,22.163l-1.847,3.694c-5.541,12.929-16.623,18.469-27.7,18.469-3.694,0-7.388,0-11.082-1.847h0L38.461,579.618,3.369,777.242c-9.235,46.174,53.562,72.031,79.419,31.4L297.035,479.882,186.218,435.555A36.242,36.242,0,0,1,169.6,418.932a23.549,23.549,0,0,1,0-22.164Z" transform="translate(-2.45 430.668)"/>
    </g>
  </g>
</svg>
