<svg xmlns="http://www.w3.org/2000/svg" width="33.619" height="22.714" viewBox="0 0 33.619 22.714">
  <g id="noun_logout_2784590" transform="translate(95.375 -886.54)">
    <g id="Groupe_37" data-name="Groupe 37" transform="translate(-95.375 886.54)">
      <path id="Tracé_136" data-name="Tracé 136" d="M49.15,17.9a11.454,11.454,0,0,0-8.4,3.685,1.931,1.931,0,1,0,2.835,2.622,7.5,7.5,0,1,1,5.528,12.544,7.306,7.306,0,0,1-5.528-2.445,1.931,1.931,0,1,0-2.835,2.622A11.37,11.37,0,1,0,49.15,17.9Z" transform="translate(-26.906 -17.9)" fill="#5e0b00"/>
      <path id="Tracé_137" data-name="Tracé 137" d="M9.207,36.792H24.869a1.943,1.943,0,0,0,1.949-1.949,1.921,1.921,0,0,0-1.949-1.949H9.207l3.083-3.083a1.929,1.929,0,1,0-2.729-2.729L3.183,33.461a1.946,1.946,0,0,0,0,2.729l6.378,6.378a1.942,1.942,0,0,0,2.764-2.729Z" transform="translate(-2.625 -23.469)" fill="#5e0b00"/>
    </g>
  </g>
</svg>
