<svg xmlns="http://www.w3.org/2000/svg" width="80.632" height="80.369" viewBox="0 0 37.632 27.369"><g transform="translate(-4 -16)"><path d="M29.684,35.071c7.558,0,13.684-1.532,13.684-3.421,0-1.517-3.955-2.8-9.425-3.25a4.262,4.262,0,0,1-8.518,0C19.955,28.848,16,30.133,16,31.65,16,33.539,22.127,35.071,29.684,35.071Z" transform="translate(-6.868 -7.097)"/><path d="M44.565,23.7a2.56,2.56,0,0,0,.881-4.966,3.152,3.152,0,0,1,2.54-1.021.855.855,0,1,0,0-1.711,4.715,4.715,0,0,0-4.074,1.917,2.792,2.792,0,0,0-.333.847,2.565,2.565,0,0,0,.986,4.933Z" transform="translate(-21.75)"/><path d="M29.684,61.215c7.558,0,13.684-1.532,13.684-3.421,0-.6-.617-1.159-1.695-1.649-3.989,1.53-10.272,1.649-11.989,1.649s-8-.118-11.989-1.649C16.617,56.634,16,57.2,16,57.794,16,59.683,22.127,61.215,29.684,61.215Z" transform="translate(-6.868 -22.978)"/><path d="M37.388,55.492a2.76,2.76,0,0,1,.822,1.928c0,4.884-12.824,5.132-15.395,5.132S7.421,62.3,7.421,57.42a2.76,2.76,0,0,1,.822-1.928C5.593,56.306,4,57.489,4,59.13c0,3.779,8.424,6.842,18.816,6.842s18.816-3.063,18.816-6.842C41.632,57.489,40.039,56.306,37.388,55.492Z" transform="translate(0 -22.604)"/><path d="M29.684,49.215c7.558,0,13.684-1.532,13.684-3.421,0-.6-.617-1.159-1.695-1.649-3.989,1.53-10.272,1.649-11.989,1.649s-8-.118-11.989-1.649C16.617,44.634,16,45.2,16,45.794,16,47.683,22.127,49.215,29.684,49.215Z" transform="translate(-6.868 -16.109)"/></g></svg>