<svg xmlns="http://www.w3.org/2000/svg" width="78.252" height="61.512" viewBox="0 0 78.252 61.512">
  <g id="noun_Photo_2073111" transform="translate(11.5 -46.688)">
    <g id="Groupe_41" data-name="Groupe 41" transform="translate(-14 34.088)">
      <circle id="Ellipse_7" data-name="Ellipse 7" cx="4.205" cy="4.205" r="4.205" transform="translate(13.054 29.586)"/>
      <path id="Tracé_141" data-name="Tracé 141" d="M70.2,19.032H61.868l-.742-1.567A8.677,8.677,0,0,0,53.375,12.6H30.04a8.585,8.585,0,0,0-7.751,4.865l-.742,1.567h-8.41A10.663,10.663,0,0,0,2.5,29.668V63.475A10.663,10.663,0,0,0,13.137,74.112H70.114A10.663,10.663,0,0,0,80.751,63.475V29.668A10.54,10.54,0,0,0,70.2,19.032Zm4.865,44.526A4.962,4.962,0,0,1,70.114,68.5H13.137a4.962,4.962,0,0,1-4.947-4.947V29.751A4.962,4.962,0,0,1,13.137,24.8H23.2a2.989,2.989,0,0,0,2.556-1.567L27.319,20.1a2.938,2.938,0,0,1,2.639-1.649H53.293A2.938,2.938,0,0,1,55.931,20.1L57.5,23.237A2.831,2.831,0,0,0,60.054,24.8h10.06a4.962,4.962,0,0,1,4.947,4.947Z" transform="translate(0 0)"/>
      <path id="Tracé_142" data-name="Tracé 142" d="M46.246,30.1A17.687,17.687,0,1,0,63.891,47.828,17.666,17.666,0,0,0,46.246,30.1Zm0,29.6A11.915,11.915,0,1,1,58.2,47.828,11.965,11.965,0,0,1,46.246,59.7Z" transform="translate(-4.579 -3.07)"/>
    </g>
  </g>
</svg>
