<svg xmlns="http://www.w3.org/2000/svg" width="32.167" height="40.558" viewBox="0 0 32.167 40.558"><g transform="translate(-94.333 -4)"><path d="M41.167,38.964a4.133,4.133,0,0,1-3.147,4.028,53.788,53.788,0,0,1-12.937,1.566,53.775,53.775,0,0,1-12.931-1.579A4.133,4.133,0,0,1,9,38.964a16.083,16.083,0,1,1,32.167,0ZM25.083,4a7.692,7.692,0,0,0-7.692,7.692v1.4a7.692,7.692,0,0,0,15.384,0v-1.4A7.692,7.692,0,0,0,25.083,4ZM17.895,35.383a8.175,8.175,0,0,1,2.58-3.007A1.4,1.4,0,0,0,18.86,30.09a10.993,10.993,0,0,0-3.5,4.042,1.412,1.412,0,0,0,2.531,1.252Z" transform="translate(85.333)" fill="currentColor"/></g></svg>