<svg xmlns="http://www.w3.org/2000/svg" width="46" height="33.129" viewBox="0 0 46 33.129">
  <defs>
    <style>
      .cls-1 {
        fill: currentColor;
        fill-rule: evenodd;
      }

      .cls-2 {
        fill: #fff;
        stroke: #fff;
      }

      .cls-3, .cls-5 {
        fill: none;
      }

      .cls-3 {
        stroke: currentColor;
        stroke-width: 3px;
      }

      .cls-4 {
        stroke: none;
      }
    </style>
  </defs>
  <g id="Groupe_26" data-name="Groupe 26" transform="translate(-221 -764.748)">
    <g id="Groupe_15" data-name="Groupe 15">
      <g id="Groupe_13" data-name="Groupe 13" transform="translate(-16.268 386.561)">
        <path id="Tracé_35" data-name="Tracé 35" class="cls-1" d="M58.568,47.061a9.055,9.055,0,0,1-1.409,1.147q-7.366,3.713-14.766,7.361c-2.958,1.45-1.938,1.527-4.7-.3q-8.716-5.778-17.374-11.647c-.451-.305-1.007-.931-.966-1.357s.692-.94,1.189-1.176C25.973,38.5,31.429,35.978,36.86,33.4a1.847,1.847,0,0,1,2.072.145c6.125,4.121,12.275,8.2,18.405,12.316A10.747,10.747,0,0,1,58.568,47.061Zm-14.608-5.5a2.83,2.83,0,0,0-1.183-3.479A7.834,7.834,0,0,0,36.21,36.5a2.323,2.323,0,0,0-2.091,1.579A2.417,2.417,0,0,0,35.2,40.669a9.716,9.716,0,0,0,5.82,1.979,2.72,2.72,0,0,1,1.311.406c2.023,1.343,4.013,2.734,6.013,4.111,1.419.975,1.936.927,3.289-.34ZM33.189,45.08c-.069.1-.138.207-.209.31-.272-.166-.554-.32-.817-.5-1.407-.973-2.805-1.953-4.21-2.927-.794-.551-.8-.546-1.63.156l5.321,3.729-.137.272a4.376,4.376,0,0,1-.778-.333c-1.466-1-2.938-2-4.37-3.057-.618-.456-1.108-.517-1.63.175,1.9,1.336,3.821,2.642,5.691,4.013a1.25,1.25,0,0,0,1.726.1c.607-.484,1.114-.341,1.722.1,2.387,1.715,4.807,3.383,7.234,5.042a1.362,1.362,0,0,0,.985.278,13.3,13.3,0,0,0,1.859-.925l-8.653-6.023,1.717-.949c-2.088-1.442-4.092-2.788-6.053-4.2a1.028,1.028,0,0,0-1.579.2c1.839,1.279,3.62,2.518,5.4,3.757-.052.09-.1.183-.158.275a6.482,6.482,0,0,1-.89-.427c-1.414-.96-2.836-1.912-4.21-2.926-.628-.463-1.124-.531-1.689.13Z" transform="translate(220.676 345.038)"/>
        <path id="Tracé_42" data-name="Tracé 42" class="cls-1" d="M14.688,54.936c.17-.623.409-1.756.8-2.836.354-.982,1-1.169,1.853-.6q9.681,6.459,19.347,12.94a1.166,1.166,0,0,1,.48,1.664,6.826,6.826,0,0,0-.057,5.574c.229.624.472,1.254-.223,1.754-.653.469-1.153.046-1.663-.307-5.877-4.062-11.694-8.214-17.662-12.138C15.428,59.587,14.847,57.735,14.688,54.936Z" transform="translate(222.58 337.676)"/>
        <path id="Tracé_49" data-name="Tracé 49" class="cls-1" d="M73.17,70.11a2.66,2.66,0,0,1-.68.7c-3.495,1.795-7.007,3.555-10.515,5.325-2.223,1.123-4.428,2.279-6.679,3.342a1.769,1.769,0,0,1-1.465-.044c-.688-.448-.4-1.349.547-1.828,3.169-1.61,6.349-3.2,9.523-4.806,2.5-1.263,5-2.538,7.507-3.789C72.355,68.533,73.215,68.973,73.17,70.11Z" transform="translate(206.754 330.475)"/>
        <path id="Tracé_65" data-name="Tracé 65" class="cls-1" d="M53.7,71.063c.351-.74,17.24-9.3,18.159-9.2C71.581,62.628,54.556,71.253,53.7,71.063Z" transform="translate(206.655 333.315)"/>
        <path id="Tracé_66" data-name="Tracé 66" class="cls-1" d="M53.627,74.679c.285-.165.562-.343.856-.492q8.182-4.138,16.366-8.271a2.5,2.5,0,0,1,.554-.257,1.22,1.22,0,0,1,.46.086,1.38,1.38,0,0,1-.163.51,1.722,1.722,0,0,1-.524.309q-8.233,4.151-16.47,8.292a4.887,4.887,0,0,1-.974.259C53.7,74.969,53.663,74.824,53.627,74.679Z" transform="translate(206.683 331.768)"/>
      </g>
      <g id="Ellipse_2" data-name="Ellipse 2" class="cls-2" transform="translate(246 770)">
        <ellipse class="cls-4" cx="10.5" cy="11" rx="10.5" ry="11"/>
        <ellipse class="cls-5" cx="10.5" cy="11" rx="10" ry="10.5"/>
      </g>
      <g id="Groupe_14" data-name="Groupe 14" transform="translate(773.976 -89.162)">
        <line id="Ligne_2" data-name="Ligne 2" class="cls-3" x2="14.024" transform="translate(-524.5 870.581)"/>
        <line id="Ligne_3" data-name="Ligne 3" class="cls-3" x2="12.162" transform="translate(-517.488 864.5) rotate(90)"/>
      </g>
    </g>
  </g>
</svg>
