<svg xmlns="http://www.w3.org/2000/svg" xmlns:xlink="http://www.w3.org/1999/xlink" width="27.839" height="26.767" viewBox="0 0 27.839 26.767">
  <defs>
    <linearGradient id="linear-gradient" x1="0.5" x2="0.5" y2="1" gradientUnits="objectBoundingBox">
      <stop offset="0" stop-color="#ffd165"/>
      <stop offset="0.719" stop-color="#ffb347"/>
      <stop offset="1" stop-color="#ffb347"/>
    </linearGradient>
  </defs>
  <g id="noun_Star_3366958" transform="translate(-65.138 -13.249)">
    <path id="Tracé_90" data-name="Tracé 90" d="M28.328,14.886l1.683,5.131a2.354,2.354,0,0,0,2.236,1.624h5.426a2.354,2.354,0,0,1,1.365,4.26l-4.39,3.189a2.353,2.353,0,0,0-.836,2.695l1.695,5.131a2.354,2.354,0,0,1-3.625,2.636l-4.39-3.189a2.354,2.354,0,0,0-2.777,0l-4.4,3.189a2.354,2.354,0,0,1-3.637-2.636l1.695-5.131a2.353,2.353,0,0,0-.859-2.624L13.146,25.9a2.354,2.354,0,0,1,1.389-4.26h5.426a2.354,2.354,0,0,0,2.213-1.624l1.683-5.166a2.354,2.354,0,0,1,4.472.035Z" transform="translate(52.965 0)" fill="url(#linear-gradient)"/>
  </g>
</svg>
