<svg xmlns="http://www.w3.org/2000/svg" width="27.839" height="26.767" viewBox="0 0 21.296 20.568">
  <g id="noun_Star_3366958" transform="translate(-63.849 -11.999)">
    <path id="Tracé_90" data-name="Tracé 90" d="M23.037,14.35l1.132,3.45a1.583,1.583,0,0,0,1.5,1.092h3.649a1.583,1.583,0,0,1,.918,2.865L27.287,23.9a1.583,1.583,0,0,0-.562,1.812l1.14,3.45a1.583,1.583,0,0,1-2.438,1.773l-2.952-2.145a1.583,1.583,0,0,0-1.868,0l-2.96,2.145A1.583,1.583,0,0,1,15.2,29.164l1.14-3.45a1.583,1.583,0,0,0-.578-1.765l-2.936-2.192a1.583,1.583,0,0,1,.934-2.865H17.41A1.583,1.583,0,0,0,18.9,17.8l1.132-3.474a1.583,1.583,0,0,1,3.007.024Z" transform="translate(52.965 0)" fill="none" stroke="#ffbf53" stroke-width="2.5"/>
  </g>
</svg>
