<svg xmlns="http://www.w3.org/2000/svg" width="40" height="40" viewBox="0 0 32 32">
  <g id="Groupe_33" data-name="Groupe 33" transform="translate(-268 -590)">
    <g id="platsfiltre" transform="translate(268 590)">
      <rect id="Rectangle_162" data-name="Rectangle 162" width="32" height="32" fill="none"/>
      <path id="Tracé_120" data-name="Tracé 120" d="M11.476,26,10.45,28.392c-.018.036-.034.073-.054.108a1.048,1.048,0,0,1-1.16.464,1.025,1.025,0,0,1-.714-.759,1,1,0,0,1-.009-.361,1.046,1.046,0,0,1,.068-.232l2.43-5.666a7.726,7.726,0,0,1-.989-.593A7.89,7.89,0,0,1,6.9,16.722a7.778,7.778,0,0,1-.193-1.572A6.884,6.884,0,0,1,6.292,6.6a1.971,1.971,0,0,1-.447-2.791,2.061,2.061,0,0,1,1.6-.822h.08a2.079,2.079,0,0,1,1.586.809A7.2,7.2,0,0,1,12.9,2.464c.128-.007.256-.01.383-.01a7.2,7.2,0,0,1,4.658,1.738c.113.1.222.2.327.3h0c.027.03.056.058.082.09a1.014,1.014,0,0,1,0,1.234c-.026.032-.055.061-.082.091l-8.2,8.081H23.491l.123.008c.04.007.081.012.12.022a1.026,1.026,0,0,1,.743.732.747.747,0,0,1,.029.239h1.513a1.043,1.043,0,0,1,.92.649,1.013,1.013,0,0,1-.239,1.064,1.053,1.053,0,0,1-.712.287H24.24a7.778,7.778,0,0,1-1.366,2.751,7.973,7.973,0,0,1-2.675,2.2l2.431,5.666a.993.993,0,0,1,.067.232,1.006,1.006,0,0,1-.3.881,1.051,1.051,0,0,1-1.139.18,1.013,1.013,0,0,1-.442-.405c-.021-.035-.037-.072-.055-.108L19.734,26H11.476Zm1.449-3.376L12.335,24h6.541l-.589-1.372a8.134,8.134,0,0,1-1.694.182H14.618a8,8,0,0,1-1.693-.185Zm6.8-5.995a1.051,1.051,0,0,1,.861.531,1.017,1.017,0,0,1-.135,1.13,8.013,8.013,0,0,1-2.595,1.961,1.225,1.225,0,0,1-.123.051,1.045,1.045,0,0,1-1.04-.238.994.994,0,0,1,.25-1.6l.063-.03a5.937,5.937,0,0,0,1.913-1.456l.02-.023.042-.043a1.036,1.036,0,0,1,.653-.282h.091Z" fill="#000000" fill-rule="evenodd"/>
      <path id="Tracé_121" data-name="Tracé 121" d="M20,5.007c.04.008.081.012.121.022A1,1,0,0,1,20.893,6c0,.348.008.694,0,1.044a2,2,0,0,1-.835,1.562.661.661,0,0,0-.161.141.421.421,0,0,0,.074.557c.069.056.139.112.2.174a2.348,2.348,0,0,1,.72,1.675V12c0,.04,0,.08-.008.12a1.024,1.024,0,0,1-.647.815,1.043,1.043,0,0,1-1.033-.186,1.009,1.009,0,0,1-.313-.51A.959.959,0,0,1,18.863,12c0-.285,0-.57,0-.855a.379.379,0,0,0-.161-.282,2.393,2.393,0,0,1,.1-3.839l.057-.04V6l.007-.121c.007-.04.012-.08.022-.119a1.03,1.03,0,0,1,.743-.732A.991.991,0,0,1,19.878,5L20,5.007Z" fill="#000000"/>
      <path id="Tracé_122" data-name="Tracé 122" d="M23.107,4.994c.04.007.081.012.121.022a1.027,1.027,0,0,1,.742.732,1.01,1.01,0,0,1,.03.239v1a2.023,2.023,0,0,1-.835,1.607A.664.664,0,0,0,23,8.737a.418.418,0,0,0,.075.554c.067.055.135.109.2.169A2.359,2.359,0,0,1,24,11.141v.85a1,1,0,0,1-.655.936,1.046,1.046,0,0,1-1.033-.187,1.006,1.006,0,0,1-.335-.628c0-.04,0-.081-.007-.121,0-.285,0-.569,0-.854a.382.382,0,0,0-.16-.282,2.393,2.393,0,0,1,.1-3.84l.057-.04V5.987l.007-.12c.008-.04.013-.08.022-.119a1.026,1.026,0,0,1,.743-.732,1.043,1.043,0,0,1,.243-.03l.122.008Z" fill="#000000"/>
    </g>
  </g>
</svg>
